<?xml version="1.0" encoding="UTF-8" standalone="no"?>
<svg xmlns="http://www.w3.org/2000/svg" xmlns:xlink="http://www.w3.org/1999/xlink" version="1.1" width="700" height="700" viewBox="610 126.5 700 700"><g id="document" fill="transparent" fill-rule="nonzero" font-family="none" font-weight="none" font-size="none"><rect x="610" y="90.35714" transform="scale(1,1.4)" width="700" height="500" id="Shape-1-1"/></g><g fill="none" fill-rule="none" stroke="none" stroke-width="1" stroke-linecap="butt" stroke-linejoin="miter" stroke-miterlimit="10" font-family="none" font-weight="none" font-size="none"><g id="stage"><g id="layer1-1"><g id="Group-1"><g id="Group-1-1" fill="transparent" fill-rule="nonzero"><rect x="850" y="346.57798" transform="scale(0.8,0.81026)" width="700" height="500" id="Shape-1"/></g><g id="Group-1-2"><g id="Group-1-3"><g id="Group-1-4"><path d="" id="Path-1" fill="#000000" fill-rule="nonzero"/><path d="" id="Path-1-1" fill="#000000" fill-rule="nonzero"/><path d="" id="Path-1-2" fill="#000000" fill-rule="nonzero"/><path d="" id="Path-1-3" fill="#000000" fill-rule="nonzero"/><path d="" id="Path-1-4" fill="#000000" fill-rule="nonzero"/><path d="" id="Path-1-5" fill="#000000" fill-rule="nonzero"/><path d="" id="Path-1-6" fill="#000000" fill-rule="nonzero"/><path d="" id="Path-1-7" fill="#000000" fill-rule="nonzero"/><path d="" id="Path-1-8" fill="#000000" fill-rule="nonzero"/><path d="" id="Path-1-9" fill="#000000" fill-rule="nonzero"/><path d="" id="Path-1-10" fill="#000000" fill-rule="nonzero"/><path d="" id="Path-1-11" fill="#000000" fill-rule="nonzero"/><path d="" id="Path-1-12" fill="#000000" fill-rule="nonzero"/><path d="" id="Path-1-13" fill="#000000" fill-rule="nonzero"/><path d="" id="Path-1-14" fill="#000000" fill-rule="nonzero"/><path d="" id="Path-1-15" fill="#000000" fill-rule="nonzero"/><g id="Group-1-5"><path d="" id="Path-1-16" fill="#0f132e" fill-rule="evenodd"/><path d="" id="Path-1-17" fill="#0e1012" fill-rule="evenodd"/><path d="" id="Path-1-18" fill="#090708" fill-rule="evenodd"/><path d="" id="Path-1-19" fill="#0e102b" fill-rule="nonzero"/><path d="" id="Path-1-20" fill="#0e102b" fill-rule="nonzero"/><path d="" id="Path-1-21" fill="#0e102b" fill-rule="nonzero"/><path d="" id="Path-1-22" fill="#090607" fill-rule="evenodd"/><path d="" id="Path-1-23" fill="#0d0d0e" fill-rule="evenodd"/><path d="" id="Path-1-24" fill="#080505" fill-rule="evenodd"/><path d="" id="Path-1-25" fill="#130f13" fill-rule="evenodd"/><path d="" id="Path-1-26" fill="#0d0f29" fill-rule="evenodd"/><path d="M642.32752,516.64091c0.88125,3.98738 1.44459,8.01525 2.29436,12.00841c3.75156,17.60634 6.73202,35.26763 12.96363,52.34195c8.34972,22.88045 18.70112,44.32383 33.97485,64.11036c28.86683,37.40156 77.52688,65.97828 128.05328,68.90447c-9.67472,-7.04369 -20.87904,-10.69277 -29.16581,-19.77497c-21.99632,-24.11513 -24.02002,-57.6016 -10.82349,-85.89781c5.0388,-10.81131 14.01168,-19.63907 19.019,-30.12943c-13.71899,5.87842 -26.80535,11.44746 -42.11057,12.77755c-47.42632,4.11172 -88.37556,-26.25193 -107.12072,-64.24626c-1.1047,-4.53099 -3.42739,-11.23058 -7.19469,-14.44594c-1.30928,0.94551 -0.19199,2.97246 0.11015,4.35172z" id="Path-1-27" fill="#6ca9e6" fill-rule="evenodd"/><path d="" id="Path-1-28" fill="#090608" fill-rule="evenodd"/><path d="" id="Path-1-29" fill="#0b0c0b" fill-rule="evenodd"/><path d="" id="Path-1-30" fill="#0b0f2a" fill-rule="evenodd"/><path d="M779.62435,608.33329c-13.19653,28.29624 -11.17283,61.78271 10.82349,85.89781c8.28678,9.0822 19.4911,12.73128 29.16581,19.77497c50.81909,7.19117 104.28819,-6.51454 143.83688,-36.71917c11.98484,-9.15449 24.77223,-20.20292 32.99919,-32.50047c10.80775,-18.04585 24.62114,-35.70136 30.19499,-56.02572c9.12396,-29.85475 20.07018,-59.44347 30.47193,-88.96861c8.11053,-23.02213 14.85829,-46.7787 27.44741,-68.18159c10.20347,-17.34612 23.78083,-38.63045 44.30107,-47.29338c-0.22032,-4.41533 4.52579,-8.82776 6.85793,-12.57514c4.31493,-6.93093 7.45905,-14.4922 9.60548,-22.22987c7.55032,-27.20324 1.40055,-57.57845 -19.83414,-78.27293c-6.68168,-6.51166 -14.83312,-10.71302 -23.0475,-15.18615c-2.14643,-0.54071 -4.24253,-0.69685 -6.25049,-1.6308c-56.14113,-7.61044 -115.49248,13.31535 -153.82319,51.30679c-7.57865,7.51213 -16.41934,16.16927 -21.75399,25.2081c-9.23411,16.90949 -22.17886,33.5472 -26.37733,52.45471c-7.06248,23.41828 -16.62708,46.63702 -24.73132,69.81239c-10.24125,29.26777 -19.10711,60.20683 -35.89156,87.05154c-5.64621,9.03305 -12.19255,17.9649 -20.12999,25.43942c-4.41249,4.15509 -11.36482,7.81573 -14.8457,12.50863c-5.00732,10.49036 -13.9802,19.31812 -19.019,30.12943z" id="Path-1-31" fill="#316fcc" fill-rule="evenodd"/><path d="" id="Path-1-32" fill="#0a080a" fill-rule="evenodd"/><path d="" id="Path-1-33" fill="#0a0709" fill-rule="evenodd"/><path d="" id="Path-1-34" fill="#090709" fill-rule="evenodd"/><path d="" id="Path-1-35" fill="#40a7da" fill-rule="evenodd"/><path d="" id="Path-1-36" fill="#070709" fill-rule="evenodd"/><path d="" id="Path-1-37" fill="#121314" fill-rule="evenodd" opacity="0.996"/><path d="" id="Path-1-38" fill="#070707" fill-rule="evenodd"/><path d="" id="Path-1-39" fill="#47adde" fill-rule="evenodd"/><path d="M1102.44688,256.05304c1.33129,-0.43373 0.74275,-0.04915 1.63343,-1.31563c-2.62482,-0.22554 -5.24967,-0.1041 -7.88392,-0.31517c2.00796,0.93395 4.10406,1.09009 6.25049,1.6308z" id="Path-1-40" fill="#80a4cd" fill-rule="evenodd"/><path d="" id="Path-1-41" fill="#060504" fill-rule="evenodd"/><path d="M1125.4944,271.2392c21.23467,20.69448 27.38446,51.06969 19.83414,78.27293c-2.14643,7.73766 -5.29058,15.29893 -9.60548,22.22987c-2.33213,3.74738 -7.07822,8.15981 -6.85793,12.57514c42.43159,-22.4236 94.10989,-9.77039 125.205,23.25345c7.81155,8.29861 14.03685,17.80585 19.68622,27.42878c2.65631,4.51943 4.00334,10.16363 7.85246,14.00064c-10.15311,-64.94889 -40.4614,-135.00707 -103.9042,-170.44821c-23.5196,-13.13899 -47.30043,-18.069 -73.62426,-23.8144c-0.89068,1.26648 -0.30214,0.8819 -1.63343,1.31563c8.21438,4.47316 16.36585,8.67451 23.0475,15.18615z" id="Path-1-42" fill="#75afe5" fill-rule="evenodd"/><path d="" id="Path-1-43" fill="#090709" fill-rule="evenodd"/><path d="" id="Path-1-44" fill="#060304" fill-rule="evenodd"/><path d="" id="Path-1-45" fill="#47aee0" fill-rule="evenodd"/><path d="" id="Path-1-46" fill="#050908" fill-rule="evenodd"/><path d="" id="Path-1-47" fill="#090809" fill-rule="evenodd"/><path d="" id="Path-1-48" fill="#0e1010" fill-rule="evenodd"/><path d="" id="Path-1-49" fill="#45afe0" fill-rule="evenodd"/><path d="" id="Path-1-50" fill="#050304" fill-rule="evenodd"/><path d="" id="Path-1-51" fill="#050306" fill-rule="evenodd"/><path d="" id="Path-1-52" fill="#070508" fill-rule="evenodd" opacity="0.996"/><path d="" id="Path-1-53" fill="#42acdd" fill-rule="evenodd"/></g><path d="" id="Path-1-54" fill="#42acdd" fill-rule="evenodd"/><path d="" id="Path-1-55" fill="#40a7da" fill-rule="evenodd"/><path d="" id="Path-1-56" fill="#0e1012" fill-rule="evenodd"/><path d="" id="Path-1-57" fill="#090607" fill-rule="evenodd"/><path d="" id="Path-1-58" fill="#0d0d0e" fill-rule="evenodd"/><path d="" id="Path-1-59" fill="#080505" fill-rule="evenodd"/><path d="" id="Path-1-60" fill="#090608" fill-rule="evenodd"/><path d="" id="Path-1-61" fill="#0b0c0b" fill-rule="evenodd"/><path d="" id="Path-1-62" fill="#090709" fill-rule="evenodd"/><path d="" id="Path-1-63" fill="#070709" fill-rule="evenodd"/><path d="" id="Path-1-64" fill="#070707" fill-rule="evenodd"/><path d="" id="Path-1-65" fill="#050908" fill-rule="evenodd"/><path d="" id="Path-1-66" fill="#090809" fill-rule="evenodd"/><path d="" id="Path-1-67" fill="#050304" fill-rule="evenodd"/><path d="" id="Path-1-68" fill="#070508" fill-rule="evenodd" opacity="0.996"/></g></g></g></g></g></g></g></svg>